<mxfile host="app.diagrams.net" modified="2024-05-20T14:17:41.032Z" agent="Mozilla/5.0 (Windows NT 10.0; Win64; x64) AppleWebKit/537.36 (KHTML, like Gecko) Chrome/124.0.0.0 Safari/537.36 Edg/124.0.0.0" version="24.4.4" etag="kdMXYv6gYqf19b9RKJ2z" type="github">
  <diagram name="第 1 页" id="dl5xbIUuuSuKG4F45gLQ">
    <mxGraphModel>
      <root>
        <mxCell id="0" />
        <mxCell id="1" parent="0" />
      </root>
    </mxGraphModel>
  </diagram>
</mxfile>
